<svg width="68" height="72" viewBox="0 0 68 72" fill="none" xmlns="http://www.w3.org/2000/svg">
<g filter="url(#filter0_d_2_10)">
<g clip-path="url(#clip0_2_10)">
<path d="M63.1827 31.6873C63.6066 31.2635 63.8219 30.6714 63.7439 30.0771C63.0836 25.042 61.146 20.1425 57.9311 15.9024C57.2325 14.9811 55.8883 14.9402 55.0707 15.7578L15.7578 55.0707C14.9402 55.8883 14.9809 57.2323 15.9022 57.9309C16.8497 58.6493 17.8302 59.304 18.8377 59.8948C19.5913 60.3368 20.5423 60.1857 21.1601 59.5679L46.0208 34.7071C46.8019 33.9261 48.0682 33.9261 48.8492 34.7071C49.6303 35.4882 49.6303 36.7545 48.8492 37.5355L26.3196 60.0652C25.2775 61.1073 25.6887 62.8691 27.1236 63.2055C36.8959 65.4966 47.5939 62.8325 55.2132 55.2132C59.0045 51.422 61.5688 46.8684 62.9064 42.046C63.4055 40.2463 61.3166 39.2103 59.996 40.5309L44.6066 55.9203C43.8255 56.7014 42.5592 56.7014 41.7782 55.9203C40.9971 55.1393 40.9971 53.873 41.7782 53.0919L63.1827 31.6873Z" fill="white"/>
<path d="M12.7868 12.7868C23.5126 2.06095 40.3396 1.15471 52.0964 10.0681C53.0178 10.7666 53.0598 12.1117 52.2422 12.9293L41.0711 24.1005C40.29 24.8816 39.0237 24.8816 38.2426 24.1005L32.5858 18.4437C31.0237 16.8816 28.491 16.8816 26.9289 18.4437L17.0294 28.3431C16.2484 29.1242 16.2484 30.3905 17.0294 31.1716C17.8105 31.9526 19.0768 31.9526 19.8579 31.1716L28.3431 22.6863C29.1242 21.9052 30.3905 21.9052 31.1716 22.6863L35.4142 26.9289C36.1953 27.71 36.1953 28.9763 35.4142 29.7574L12.9293 52.2422C12.1117 53.0598 10.7666 53.0178 10.0681 52.0965C1.15471 40.3396 2.06095 23.5126 12.7868 12.7868Z" fill="white"/>
</g>
</g>
<defs>
<filter id="filter0_d_2_10" x="-4" y="0" width="76" height="76" filterUnits="userSpaceOnUse" color-interpolation-filters="sRGB">
<feFlood flood-opacity="0" result="BackgroundImageFix"/>
<feColorMatrix in="SourceAlpha" type="matrix" values="0 0 0 0 0 0 0 0 0 0 0 0 0 0 0 0 0 0 127 0" result="hardAlpha"/>
<feOffset dy="4"/>
<feGaussianBlur stdDeviation="2"/>
<feComposite in2="hardAlpha" operator="out"/>
<feColorMatrix type="matrix" values="0 0 0 0 0 0 0 0 0 0 0 0 0 0 0 0 0 0 0.25 0"/>
<feBlend mode="normal" in2="BackgroundImageFix" result="effect1_dropShadow_2_10"/>
<feBlend mode="normal" in="SourceGraphic" in2="effect1_dropShadow_2_10" result="shape"/>
</filter>
<clipPath id="clip0_2_10">
<rect width="60" height="60" fill="white" transform="translate(4 4)"/>
</clipPath>
</defs>
</svg>
